<?xml version="1.0" standalone="no"?>
<!DOCTYPE svg PUBLIC "-//W3C//DTD SVG 20010904//EN"
 "http://www.w3.org/TR/2001/REC-SVG-20010904/DTD/svg10.dtd">
<svg version="1.0" xmlns="http://www.w3.org/2000/svg"
 width="512.000000pt" height="512.000000pt" viewBox="0 0 512.000000 512.000000"
 preserveAspectRatio="xMidYMid meet">

<g transform="translate(0.000000,512.000000) scale(0.100000,-0.100000)"
fill="#000000" stroke="none">
<path d="M2485 5101 c-27 -13 -228 -208 -627 -607 -521 -523 -587 -593 -594
-627 -10 -55 1 -113 28 -153 27 -40 108 -84 152 -84 76 1 109 29 523 443 l403
401 2 -1639 c3 -1504 4 -1642 20 -1670 33 -61 104 -105 168 -105 64 0 135 44
168 105 16 28 17 166 20 1669 l2 1640 413 -411 c430 -429 435 -433 517 -433
75 1 164 81 176 158 15 98 34 76 -599 711 -395 395 -595 589 -622 602 -51 24
-99 24 -150 0z"/>
<path d="M465 1601 c-56 -25 -91 -71 -105 -134 -7 -37 -10 -253 -8 -693 3
-696 1 -666 60 -721 60 -57 -82 -53 2148 -53 2248 0 2088 -4 2153 58 56 53 57
68 57 743 0 408 -4 635 -11 669 -25 118 -146 181 -254 131 -50 -22 -91 -69
-105 -119 -6 -23 -10 -236 -10 -574 l0 -538 -1830 0 -1830 0 0 538 c0 338 -4
551 -10 574 -21 76 -102 138 -180 138 -19 0 -53 -9 -75 -19z"/>
</g>
</svg>
