<?xml version="1.0" standalone="no"?>
<!DOCTYPE svg PUBLIC "-//W3C//DTD SVG 20010904//EN"
 "http://www.w3.org/TR/2001/REC-SVG-20010904/DTD/svg10.dtd">
<svg version="1.0" xmlns="http://www.w3.org/2000/svg"
 width="512.000000pt" height="512.000000pt" viewBox="0 0 512.000000 512.000000"
 preserveAspectRatio="xMidYMid meet">

<g transform="translate(0.000000,512.000000) scale(0.100000,-0.100000)"
fill="#000000" stroke="none">
<path d="M3001 5004 c-12 -9 -205 -244 -427 -521 -379 -474 -404 -508 -404
-545 0 -30 7 -46 29 -69 l29 -29 216 0 216 0 0 -295 0 -295 -215 0 c-230 0
-262 5 -313 53 -34 32 -62 91 -62 131 0 136 -74 272 -188 345 -95 60 -102 61
-803 61 -612 0 -640 -1 -703 -20 -107 -33 -184 -101 -238 -210 l-33 -65 2
-1300 c2 -1325 10 -1729 38 -1843 30 -127 102 -219 208 -268 l62 -29 1790 0
1790 0 65 31 c77 37 120 71 160 129 16 23 201 438 412 921 l382 879 1 100 c0
93 -2 105 -32 166 -40 80 -120 159 -200 197 -57 27 -61 27 -305 30 l-247 4 -3
201 -3 202 -33 63 c-56 108 -142 177 -257 206 -44 12 -112 16 -272 16 l-213 0
0 295 0 295 205 0 c125 0 213 4 228 11 35 16 60 64 53 101 -6 33 -814 1051
-842 1062 -28 11 -69 6 -93 -10z m343 -604 l284 -355 -160 -5 -160 -5 -29 -33
-29 -32 0 -705 0 -705 -195 0 -195 0 0 683 c0 448 -4 695 -11 720 -18 66 -49
77 -222 77 -82 0 -147 4 -145 8 8 20 564 711 571 709 4 -1 135 -162 291 -357z
m-1557 -796 c56 -45 74 -84 84 -177 22 -190 142 -329 317 -366 29 -6 147 -11
262 -11 l210 0 0 -245 0 -244 -767 -3 -768 -3 -58 -27 c-79 -37 -127 -77 -169
-140 -20 -29 -159 -337 -309 -685 l-274 -632 -6 177 c-4 97 -7 645 -8 1218
l-1 1040 29 45 c18 30 44 53 72 67 l44 22 652 -2 651 -3 39 -31z m2164 -589
c74 -52 83 -84 87 -282 l4 -173 -296 0 -296 0 0 246 0 245 229 -3 229 -3 43
-30z m767 -676 c29 -15 54 -37 74 -68 27 -42 29 -52 25 -111 -4 -59 -35 -138
-372 -910 -202 -465 -379 -860 -392 -878 -13 -18 -42 -41 -63 -52 -39 -20 -62
-20 -1785 -20 -1916 0 -1774 -5 -1828 60 -30 35 -44 80 -53 165 l-6 60 352
810 c378 870 388 891 417 917 55 50 -39 47 1837 48 l1750 0 44 -21z"/>
</g>
</svg>
