<svg xmlns="http://www.w3.org/2000/svg" xmlns:xlink="http://www.w3.org/1999/xlink" width="500" zoomAndPan="magnify" viewBox="0 0 375 374.999991" height="500" preserveAspectRatio="xMidYMid meet" version="1.0"><path fill="rgb(32.939148%, 32.939148%, 32.939148%)" d="M 319.652344 80.984375 C 319.582031 89.929688 318.734375 99.53125 316.472656 110.066406 C 310.632812 137.40625 298.785156 161.105469 282.324219 180.085938 C 275.410156 200.511719 255.199219 216.253906 234.832031 216.253906 L 233.800781 216.253906 C 214.066406 225.273438 191.792969 230.179688 167.832031 230.179688 L 129.804688 230.179688 L 113.660156 305.910156 L 108.820312 328.570312 L 85.0625 328.570312 L 75.730469 371.507812 L 161.40625 371.507812 L 182.390625 273.121094 L 243.5625 273.121094 C 302.148438 273.121094 351.113281 237.023438 364.238281 175.648438 C 375.257812 124.050781 350.597656 93.378906 319.652344 80.984375 Z M 319.652344 80.984375 " fill-opacity="1" fill-rule="evenodd"/><path fill="rgb(32.939148%, 32.939148%, 32.939148%)" d="M 210.660156 2.992188 L 64.652344 2.992188 L -0.0429688 299.941406 L 85.632812 299.941406 L 106.632812 201.554688 L 167.820312 201.554688 C 226.386719 201.554688 275.367188 165.457031 288.476562 104.082031 C 303.335938 34.59375 253.511719 2.992188 210.660156 2.992188 Z M 208.039062 104.082031 C 202.800781 126.65625 180.929688 144.691406 159.074219 144.691406 L 118.882812 144.691406 L 137.234375 63.464844 L 179.199219 63.464844 C 200.179688 63.464844 214.164062 81.542969 208.039062 104.082031 Z M 208.039062 104.082031 " fill-opacity="1" fill-rule="evenodd"/></svg>