<svg xmlns="http://www.w3.org/2000/svg" xmlns:xlink="http://www.w3.org/1999/xlink" width="500" zoomAndPan="magnify" viewBox="0 0 375 374.999991" height="500" preserveAspectRatio="xMidYMid meet" version="1.0"><defs><clipPath id="id1"><path d="M 6 138.410156 L 375 138.410156 L 375 374.660156 L 6 374.660156 Z M 6 138.410156 " clip-rule="nonzero"/></clipPath></defs><path fill="rgb(32.939148%, 32.939148%, 32.939148%)" d="M 194.605469 315.980469 L 264.039062 315.980469 C 264.390625 315.980469 264.742188 315.949219 265.085938 315.878906 C 265.429688 315.808594 265.765625 315.707031 266.089844 315.574219 C 266.414062 315.441406 266.722656 315.273438 267.015625 315.082031 C 267.308594 314.886719 267.578125 314.664062 267.828125 314.414062 C 268.078125 314.167969 268.300781 313.894531 268.496094 313.605469 C 268.691406 313.3125 268.855469 313.003906 268.988281 312.679688 C 269.125 312.355469 269.226562 312.019531 269.292969 311.675781 C 269.363281 311.332031 269.398438 310.984375 269.398438 310.632812 C 269.398438 310.28125 269.363281 309.933594 269.292969 309.589844 C 269.226562 309.242188 269.125 308.910156 268.988281 308.585938 C 268.855469 308.261719 268.691406 307.953125 268.496094 307.660156 C 268.300781 307.367188 268.078125 307.097656 267.828125 306.847656 C 267.578125 306.601562 267.308594 306.378906 267.015625 306.183594 C 266.722656 305.988281 266.414062 305.824219 266.089844 305.6875 C 265.765625 305.554688 265.429688 305.453125 265.085938 305.386719 C 264.742188 305.316406 264.390625 305.28125 264.039062 305.28125 L 194.605469 305.28125 C 194.253906 305.28125 193.90625 305.316406 193.5625 305.386719 C 193.214844 305.453125 192.882812 305.554688 192.554688 305.6875 C 192.230469 305.824219 191.921875 305.988281 191.628906 306.183594 C 191.335938 306.378906 191.066406 306.601562 190.816406 306.847656 C 190.570312 307.097656 190.347656 307.367188 190.152344 307.660156 C 189.957031 307.953125 189.792969 308.261719 189.65625 308.585938 C 189.523438 308.910156 189.421875 309.242188 189.351562 309.589844 C 189.28125 309.933594 189.25 310.28125 189.25 310.632812 C 189.25 310.984375 189.28125 311.332031 189.351562 311.675781 C 189.421875 312.019531 189.523438 312.355469 189.65625 312.679688 C 189.792969 313.003906 189.957031 313.3125 190.152344 313.605469 C 190.347656 313.894531 190.570312 314.167969 190.816406 314.414062 C 191.066406 314.664062 191.335938 314.886719 191.628906 315.082031 C 191.921875 315.273438 192.230469 315.441406 192.554688 315.574219 C 192.882812 315.707031 193.214844 315.808594 193.5625 315.878906 C 193.90625 315.949219 194.253906 315.980469 194.605469 315.980469 Z M 194.605469 315.980469 " fill-opacity="1" fill-rule="nonzero"/><path fill="rgb(32.939148%, 32.939148%, 32.939148%)" d="M 194.605469 290.601562 L 332.960938 290.601562 C 333.3125 290.601562 333.660156 290.566406 334.003906 290.5 C 334.351562 290.429688 334.683594 290.328125 335.011719 290.195312 C 335.335938 290.058594 335.644531 289.894531 335.9375 289.699219 C 336.230469 289.503906 336.5 289.285156 336.75 289.035156 C 336.996094 288.785156 337.21875 288.515625 337.414062 288.222656 C 337.609375 287.933594 337.773438 287.625 337.910156 287.300781 C 338.042969 286.976562 338.144531 286.640625 338.214844 286.296875 C 338.28125 285.953125 338.316406 285.601562 338.316406 285.253906 C 338.316406 284.902344 338.28125 284.554688 338.214844 284.207031 C 338.144531 283.863281 338.042969 283.53125 337.910156 283.203125 C 337.773438 282.878906 337.609375 282.570312 337.414062 282.28125 C 337.21875 281.988281 336.996094 281.71875 336.75 281.46875 C 336.5 281.222656 336.230469 281 335.9375 280.804688 C 335.644531 280.609375 335.335938 280.445312 335.011719 280.308594 C 334.683594 280.175781 334.351562 280.074219 334.003906 280.003906 C 333.660156 279.9375 333.3125 279.902344 332.960938 279.902344 L 194.605469 279.902344 C 194.253906 279.902344 193.90625 279.9375 193.5625 280.003906 C 193.214844 280.074219 192.882812 280.175781 192.554688 280.308594 C 192.230469 280.445312 191.921875 280.609375 191.628906 280.804688 C 191.335938 281 191.066406 281.222656 190.816406 281.46875 C 190.570312 281.71875 190.347656 281.988281 190.152344 282.28125 C 189.957031 282.570312 189.792969 282.878906 189.65625 283.203125 C 189.523438 283.53125 189.421875 283.863281 189.351562 284.207031 C 189.28125 284.554688 189.25 284.902344 189.25 285.253906 C 189.25 285.601562 189.28125 285.953125 189.351562 286.296875 C 189.421875 286.640625 189.523438 286.976562 189.65625 287.300781 C 189.792969 287.625 189.957031 287.933594 190.152344 288.222656 C 190.347656 288.515625 190.570312 288.785156 190.816406 289.035156 C 191.066406 289.285156 191.335938 289.503906 191.628906 289.699219 C 191.921875 289.894531 192.230469 290.058594 192.554688 290.195312 C 192.882812 290.328125 193.214844 290.429688 193.5625 290.5 C 193.90625 290.566406 194.253906 290.601562 194.605469 290.601562 Z M 194.605469 290.601562 " fill-opacity="1" fill-rule="nonzero"/><path fill="rgb(32.939148%, 32.939148%, 32.939148%)" d="M 51.496094 337.980469 L 161.089844 337.980469 C 161.441406 337.980469 161.789062 337.945312 162.132812 337.878906 C 162.480469 337.808594 162.816406 337.707031 163.140625 337.574219 C 163.464844 337.4375 163.773438 337.273438 164.066406 337.078125 C 164.359375 336.882812 164.628906 336.660156 164.878906 336.414062 C 165.125 336.164062 165.347656 335.894531 165.542969 335.601562 C 165.738281 335.3125 165.90625 335.003906 166.039062 334.679688 C 166.171875 334.351562 166.273438 334.019531 166.34375 333.675781 C 166.414062 333.328125 166.445312 332.980469 166.445312 332.628906 L 166.445312 311.488281 L 128.128906 311.488281 C 127.777344 311.488281 127.429688 311.453125 127.085938 311.386719 C 126.738281 311.316406 126.40625 311.214844 126.078125 311.082031 C 125.753906 310.945312 125.445312 310.78125 125.152344 310.585938 C 124.859375 310.390625 124.589844 310.167969 124.339844 309.921875 C 124.09375 309.671875 123.871094 309.402344 123.675781 309.109375 C 123.480469 308.816406 123.316406 308.511719 123.179688 308.183594 C 123.046875 307.859375 122.945312 307.527344 122.875 307.183594 C 122.804688 306.835938 122.773438 306.488281 122.773438 306.136719 C 122.773438 305.785156 122.804688 305.4375 122.875 305.09375 C 122.945312 304.75 123.046875 304.414062 123.179688 304.089844 C 123.316406 303.765625 123.480469 303.457031 123.675781 303.164062 C 123.871094 302.875 124.09375 302.601562 124.339844 302.355469 C 124.589844 302.105469 124.859375 301.886719 125.152344 301.691406 C 125.445312 301.496094 125.753906 301.328125 126.078125 301.195312 C 126.40625 301.0625 126.738281 300.960938 127.085938 300.890625 C 127.429688 300.824219 127.777344 300.789062 128.128906 300.789062 L 166.445312 300.789062 L 166.445312 287.390625 L 128.128906 287.390625 C 127.777344 287.390625 127.429688 287.359375 127.085938 287.289062 C 126.738281 287.222656 126.40625 287.121094 126.078125 286.984375 C 125.753906 286.851562 125.445312 286.6875 125.152344 286.492188 C 124.859375 286.296875 124.589844 286.074219 124.339844 285.824219 C 124.09375 285.578125 123.871094 285.304688 123.675781 285.015625 C 123.480469 284.722656 123.316406 284.414062 123.179688 284.089844 C 123.046875 283.765625 122.945312 283.429688 122.875 283.085938 C 122.804688 282.742188 122.773438 282.394531 122.773438 282.042969 C 122.773438 281.691406 122.804688 281.34375 122.875 281 C 122.945312 280.652344 123.046875 280.320312 123.179688 279.996094 C 123.316406 279.671875 123.480469 279.363281 123.675781 279.070312 C 123.871094 278.777344 124.09375 278.507812 124.339844 278.257812 C 124.589844 278.011719 124.859375 277.789062 125.152344 277.59375 C 125.445312 277.398438 125.753906 277.234375 126.078125 277.097656 C 126.40625 276.964844 126.738281 276.863281 127.085938 276.796875 C 127.429688 276.726562 127.777344 276.691406 128.128906 276.691406 L 166.445312 276.691406 L 166.445312 255.550781 C 166.445312 255.199219 166.414062 254.851562 166.34375 254.507812 C 166.273438 254.160156 166.171875 253.828125 166.039062 253.503906 C 165.90625 253.179688 165.738281 252.871094 165.542969 252.578125 C 165.347656 252.285156 165.125 252.015625 164.878906 251.765625 C 164.628906 251.519531 164.359375 251.296875 164.066406 251.101562 C 163.773438 250.90625 163.464844 250.742188 163.140625 250.605469 C 162.816406 250.472656 162.480469 250.371094 162.132812 250.300781 C 161.789062 250.234375 161.441406 250.199219 161.089844 250.199219 L 51.496094 250.199219 C 51.144531 250.199219 50.796875 250.234375 50.449219 250.300781 C 50.105469 250.371094 49.769531 250.472656 49.445312 250.605469 C 49.121094 250.742188 48.8125 250.90625 48.519531 251.101562 C 48.226562 251.296875 47.957031 251.519531 47.707031 251.765625 C 47.457031 252.015625 47.234375 252.285156 47.039062 252.578125 C 46.84375 252.871094 46.679688 253.179688 46.546875 253.503906 C 46.410156 253.828125 46.308594 254.160156 46.242188 254.507812 C 46.171875 254.851562 46.136719 255.199219 46.136719 255.550781 L 46.136719 276.691406 L 84.710938 276.691406 C 85.0625 276.691406 85.414062 276.726562 85.757812 276.796875 C 86.101562 276.863281 86.4375 276.964844 86.761719 277.097656 C 87.085938 277.234375 87.394531 277.398438 87.6875 277.59375 C 87.980469 277.789062 88.25 278.011719 88.5 278.257812 C 88.75 278.507812 88.972656 278.777344 89.167969 279.070312 C 89.363281 279.363281 89.527344 279.671875 89.660156 279.996094 C 89.796875 280.320312 89.898438 280.652344 89.964844 281 C 90.035156 281.34375 90.070312 281.691406 90.070312 282.042969 C 90.070312 282.394531 90.035156 282.742188 89.964844 283.085938 C 89.898438 283.429688 89.796875 283.765625 89.660156 284.089844 C 89.527344 284.414062 89.363281 284.722656 89.167969 285.015625 C 88.972656 285.304688 88.75 285.578125 88.5 285.824219 C 88.25 286.074219 87.980469 286.296875 87.6875 286.492188 C 87.394531 286.6875 87.085938 286.851562 86.761719 286.984375 C 86.4375 287.121094 86.101562 287.222656 85.757812 287.289062 C 85.414062 287.359375 85.0625 287.390625 84.710938 287.390625 L 46.136719 287.390625 L 46.136719 300.789062 L 84.710938 300.789062 C 85.0625 300.789062 85.414062 300.824219 85.757812 300.890625 C 86.101562 300.960938 86.4375 301.0625 86.761719 301.195312 C 87.085938 301.328125 87.394531 301.496094 87.6875 301.691406 C 87.980469 301.886719 88.25 302.105469 88.5 302.355469 C 88.75 302.601562 88.972656 302.875 89.167969 303.164062 C 89.363281 303.457031 89.527344 303.765625 89.660156 304.089844 C 89.796875 304.414062 89.898438 304.75 89.964844 305.09375 C 90.035156 305.4375 90.070312 305.785156 90.070312 306.136719 C 90.070312 306.488281 90.035156 306.835938 89.964844 307.183594 C 89.898438 307.527344 89.796875 307.859375 89.660156 308.183594 C 89.527344 308.511719 89.363281 308.816406 89.167969 309.109375 C 88.972656 309.402344 88.75 309.671875 88.5 309.921875 C 88.25 310.167969 87.980469 310.390625 87.6875 310.585938 C 87.394531 310.78125 87.085938 310.945312 86.761719 311.082031 C 86.4375 311.214844 86.101562 311.316406 85.757812 311.386719 C 85.414062 311.453125 85.0625 311.488281 84.710938 311.488281 L 46.136719 311.488281 L 46.136719 332.628906 C 46.136719 332.980469 46.171875 333.328125 46.242188 333.675781 C 46.308594 334.019531 46.410156 334.351562 46.546875 334.679688 C 46.679688 335.003906 46.84375 335.3125 47.039062 335.601562 C 47.234375 335.894531 47.457031 336.164062 47.707031 336.414062 C 47.957031 336.660156 48.226562 336.882812 48.519531 337.078125 C 48.8125 337.273438 49.121094 337.4375 49.445312 337.574219 C 49.769531 337.707031 50.105469 337.808594 50.449219 337.878906 C 50.796875 337.945312 51.144531 337.980469 51.496094 337.980469 Z M 51.496094 337.980469 " fill-opacity="1" fill-rule="nonzero"/><g clip-path="url(#id1)"><path fill="rgb(32.939148%, 32.939148%, 32.939148%)" d="M 354.691406 138.410156 L 30.277344 138.410156 C 29.496094 138.410156 28.714844 138.449219 27.933594 138.527344 C 27.152344 138.605469 26.378906 138.722656 25.609375 138.875 C 24.84375 139.03125 24.082031 139.222656 23.332031 139.449219 C 22.585938 139.675781 21.847656 139.941406 21.125 140.242188 C 20.398438 140.542969 19.691406 140.878906 19 141.246094 C 18.3125 141.617188 17.640625 142.019531 16.988281 142.457031 C 16.335938 142.890625 15.710938 143.359375 15.105469 143.855469 C 14.5 144.351562 13.917969 144.878906 13.367188 145.429688 C 12.8125 145.984375 12.285156 146.566406 11.789062 147.171875 C 11.292969 147.777344 10.828125 148.402344 10.390625 149.054688 C 9.957031 149.707031 9.554688 150.378906 9.1875 151.066406 C 8.816406 151.757812 8.480469 152.464844 8.183594 153.1875 C 7.882812 153.910156 7.621094 154.648438 7.390625 155.394531 C 7.164062 156.144531 6.976562 156.902344 6.824219 157.671875 C 6.667969 158.4375 6.554688 159.210938 6.476562 159.992188 C 6.402344 160.769531 6.363281 161.550781 6.363281 162.332031 L 6.363281 350.863281 C 6.367188 351.644531 6.410156 352.421875 6.488281 353.195312 C 6.570312 353.972656 6.6875 354.742188 6.84375 355.507812 C 7 356.269531 7.191406 357.027344 7.421875 357.773438 C 7.652344 358.515625 7.917969 359.25 8.21875 359.96875 C 8.519531 360.6875 8.855469 361.390625 9.226562 362.078125 C 9.597656 362.765625 10 363.433594 10.4375 364.078125 C 10.871094 364.726562 11.339844 365.351562 11.835938 365.953125 C 12.332031 366.554688 12.855469 367.132812 13.410156 367.683594 C 13.964844 368.234375 14.542969 368.753906 15.148438 369.25 C 15.75 369.742188 16.378906 370.207031 17.027344 370.640625 C 17.679688 371.070312 18.347656 371.472656 19.039062 371.839844 C 19.726562 372.207031 20.429688 372.539062 21.152344 372.839844 C 21.875 373.136719 22.609375 373.398438 23.355469 373.625 C 24.105469 373.851562 24.859375 374.042969 25.625 374.195312 C 26.394531 374.347656 27.164062 374.464844 27.941406 374.539062 C 28.71875 374.617188 29.5 374.65625 30.277344 374.660156 L 354.691406 374.660156 C 355.472656 374.65625 356.253906 374.617188 357.035156 374.539062 C 357.816406 374.460938 358.589844 374.347656 359.359375 374.191406 C 360.125 374.039062 360.886719 373.847656 361.636719 373.617188 C 362.386719 373.390625 363.121094 373.125 363.84375 372.824219 C 364.570312 372.523438 365.277344 372.191406 365.96875 371.820312 C 366.65625 371.449219 367.328125 371.046875 367.980469 370.613281 C 368.632812 370.175781 369.261719 369.710938 369.867188 369.214844 C 370.472656 368.714844 371.050781 368.191406 371.605469 367.636719 C 372.15625 367.082031 372.683594 366.503906 373.179688 365.898438 C 373.675781 365.292969 374.140625 364.664062 374.578125 364.011719 C 375.011719 363.363281 375.414062 362.691406 375.785156 362 C 376.152344 361.308594 376.488281 360.601562 376.785156 359.878906 C 377.085938 359.15625 377.351562 358.421875 377.578125 357.671875 C 377.804688 356.921875 377.996094 356.164062 378.148438 355.398438 C 378.300781 354.628906 378.414062 353.855469 378.492188 353.078125 C 378.566406 352.296875 378.605469 351.515625 378.605469 350.734375 L 378.605469 162.417969 C 378.609375 161.636719 378.574219 160.851562 378.5 160.070312 C 378.425781 159.289062 378.3125 158.515625 378.160156 157.746094 C 378.011719 156.976562 377.824219 156.214844 377.597656 155.464844 C 377.371094 154.710938 377.109375 153.972656 376.8125 153.246094 C 376.511719 152.523438 376.179688 151.8125 375.8125 151.121094 C 375.441406 150.425781 375.042969 149.753906 374.605469 149.101562 C 374.171875 148.445312 373.707031 147.816406 373.210938 147.207031 C 372.714844 146.601562 372.1875 146.019531 371.632812 145.460938 C 371.082031 144.90625 370.5 144.378906 369.894531 143.878906 C 369.289062 143.378906 368.660156 142.910156 368.007812 142.472656 C 367.355469 142.035156 366.683594 141.632812 365.992188 141.261719 C 365.300781 140.890625 364.589844 140.550781 363.867188 140.25 C 363.140625 139.949219 362.402344 139.683594 361.652344 139.453125 C 360.898438 139.226562 360.140625 139.03125 359.367188 138.878906 C 358.597656 138.722656 357.824219 138.605469 357.039062 138.527344 C 356.257812 138.449219 355.476562 138.410156 354.691406 138.410156 Z M 367.890625 350.863281 C 367.890625 351.730469 367.808594 352.585938 367.636719 353.4375 C 367.46875 354.289062 367.21875 355.113281 366.886719 355.914062 C 366.554688 356.714844 366.148438 357.476562 365.667969 358.195312 C 365.1875 358.917969 364.640625 359.585938 364.027344 360.199219 C 363.414062 360.8125 362.75 361.359375 362.027344 361.84375 C 361.308594 362.328125 360.546875 362.734375 359.746094 363.070312 C 358.945312 363.402344 358.117188 363.65625 357.269531 363.828125 C 356.417969 363.996094 355.558594 364.085938 354.691406 364.085938 L 30.277344 364.085938 C 29.417969 364.078125 28.5625 363.980469 27.71875 363.804688 C 26.875 363.628906 26.058594 363.371094 25.265625 363.03125 C 24.46875 362.695312 23.71875 362.285156 23.003906 361.800781 C 22.289062 361.316406 21.632812 360.769531 21.027344 360.15625 C 20.417969 359.542969 19.878906 358.875 19.402344 358.15625 C 18.925781 357.4375 18.527344 356.683594 18.199219 355.886719 C 17.871094 355.089844 17.625 354.265625 17.457031 353.421875 C 17.289062 352.578125 17.207031 351.722656 17.207031 350.863281 L 17.207031 223.195312 L 367.890625 223.195312 Z M 367.890625 177.65625 L 17.207031 177.65625 L 17.207031 162.332031 C 17.207031 161.472656 17.289062 160.621094 17.457031 159.773438 C 17.625 158.929688 17.871094 158.109375 18.199219 157.3125 C 18.527344 156.515625 18.925781 155.757812 19.402344 155.039062 C 19.878906 154.320312 20.417969 153.65625 21.023438 153.042969 C 21.628906 152.429688 22.289062 151.878906 23.003906 151.398438 C 23.714844 150.914062 24.46875 150.5 25.261719 150.164062 C 26.058594 149.828125 26.875 149.570312 27.71875 149.390625 C 28.5625 149.214844 29.417969 149.121094 30.277344 149.109375 L 354.691406 149.109375 C 355.558594 149.113281 356.417969 149.199219 357.269531 149.371094 C 358.117188 149.542969 358.945312 149.792969 359.746094 150.128906 C 360.546875 150.460938 361.308594 150.871094 362.027344 151.351562 C 362.746094 151.835938 363.414062 152.382812 364.027344 152.996094 C 364.640625 153.609375 365.1875 154.277344 365.667969 155 C 366.148438 155.71875 366.554688 156.480469 366.886719 157.28125 C 367.21875 158.082031 367.46875 158.910156 367.636719 159.757812 C 367.808594 160.609375 367.890625 161.46875 367.890625 162.332031 Z M 367.890625 177.65625 " fill-opacity="1" fill-rule="nonzero"/></g></svg>